<svg xmlns="http://www.w3.org/2000/svg" xmlns:xlink="http://www.w3.org/1999/xlink" width="500" zoomAndPan="magnify" viewBox="0 0 375 374.999991" height="500" preserveAspectRatio="xMidYMid meet" version="1.0"><defs><g/></defs><g fill="rgb(0%, 0%, 0%)" fill-opacity="1"><g transform="translate(62.905646, 230.249985)"><g><path d="M 45.078125 -55.082031 C 41.054688 -58.648438 35.648438 -60.71875 28.632812 -60.71875 C 21.621094 -60.71875 14.949219 -58.992188 8.855469 -56.234375 C 8.050781 -55.890625 7.820312 -55.3125 7.820312 -54.625 L 7.820312 -1.265625 C 7.820312 -0.460938 8.28125 0 9.085938 0 L 15.871094 0 C 16.789062 0 17.25 -0.460938 17.25 -1.265625 L 17.25 -50.140625 C 20.46875 -51.289062 24.148438 -52.207031 28.863281 -52.207031 C 38.179688 -52.207031 42.664062 -47.265625 42.664062 -37.488281 L 42.664062 -1.265625 C 42.664062 -0.460938 43.125 0 43.929688 0 L 50.828125 0 C 51.632812 0 52.09375 -0.460938 52.09375 -1.265625 L 52.09375 -37.375 C 52.09375 -41.515625 51.289062 -45.308594 49.910156 -48.300781 C 53.359375 -50.714844 57.730469 -52.207031 62.558594 -52.207031 C 72.449219 -52.207031 77.164062 -46.6875 77.164062 -37.488281 L 77.164062 -1.265625 C 77.164062 -0.460938 77.625 0 78.542969 0 L 85.328125 0 C 86.132812 0 86.59375 -0.460938 86.59375 -1.265625 L 86.59375 -37.257812 C 86.59375 -52.554688 76.816406 -60.71875 62.789062 -60.71875 C 55.890625 -60.71875 50.597656 -58.765625 45.078125 -55.082031 Z M 45.078125 -55.082031 "/></g></g></g><g fill="rgb(0%, 0%, 0%)" fill-opacity="1"><g transform="translate(156.857479, 230.249985)"><g><path d="M 54.277344 -26.5625 L 54.277344 -37.835938 C 54.277344 -53.589844 42.777344 -60.71875 30.246094 -60.71875 C 17.59375 -60.71875 5.863281 -53.589844 5.863281 -37.835938 L 5.863281 -20.355469 C 5.863281 -5.863281 17.710938 1.265625 30.128906 1.265625 C 39.789062 1.265625 47.148438 -2.183594 52.898438 -7.015625 C 53.589844 -7.589844 53.703125 -8.164062 53.128906 -8.855469 L 49.792969 -13.226562 C 49.332031 -13.914062 48.644531 -14.03125 47.953125 -13.570312 C 43.699219 -10.234375 38.292969 -7.128906 30.359375 -7.128906 C 21.847656 -7.128906 15.410156 -11.730469 15.410156 -20.355469 L 15.410156 -25.183594 L 53.015625 -25.183594 C 53.820312 -25.183594 54.277344 -25.644531 54.277344 -26.5625 Z M 45.078125 -37.835938 L 45.078125 -33.003906 L 15.410156 -33.003906 L 15.410156 -37.835938 C 15.410156 -47.722656 21.621094 -52.207031 30.246094 -52.207031 C 38.640625 -52.207031 45.078125 -47.609375 45.078125 -37.835938 Z M 45.078125 -37.835938 "/></g></g></g><g fill="rgb(0%, 0%, 0%)" fill-opacity="1"><g transform="translate(216.425472, 230.249985)"><g><path d="M 17.019531 -19.550781 L 17.019531 -50.484375 L 31.96875 -50.484375 C 32.773438 -50.484375 33.234375 -50.945312 33.234375 -51.863281 L 33.234375 -57.613281 C 33.234375 -58.417969 32.773438 -58.878906 31.96875 -58.878906 L 17.019531 -58.878906 L 16.214844 -72.792969 C 16.101562 -73.597656 15.640625 -74.058594 14.949219 -74.058594 L 8.96875 -74.058594 C 8.050781 -74.058594 7.589844 -73.597656 7.589844 -72.679688 L 7.589844 -19.089844 C 7.589844 -4.945312 16.101562 1.265625 27.597656 1.265625 C 29.09375 1.265625 31.738281 1.148438 33.808594 1.035156 C 34.613281 0.921875 34.960938 0.34375 34.960938 -0.34375 L 34.960938 -6.441406 C 34.960938 -7.246094 34.5 -7.703125 33.578125 -7.703125 C 31.507812 -7.589844 29.324219 -7.476562 28.058594 -7.476562 C 20.929688 -7.476562 17.019531 -11.960938 17.019531 -19.550781 Z M 17.019531 -19.550781 "/></g></g></g><g fill="rgb(0%, 0%, 0%)" fill-opacity="1"><g transform="translate(253.339235, 230.249985)"><g><path d="M 7.015625 -54.738281 C 6.554688 -54.277344 6.667969 -53.820312 7.015625 -53.128906 L 10.351562 -48.300781 C 10.808594 -47.609375 11.382812 -47.492188 12.074219 -47.953125 C 16.101562 -50.367188 21.964844 -52.207031 28.40625 -52.207031 C 38.410156 -52.207031 42.203125 -47.492188 42.203125 -38.179688 L 42.203125 -34.5 C 38.292969 -35.1875 33.121094 -35.878906 28.40625 -35.878906 C 13.683594 -35.878906 3.679688 -29.785156 3.679688 -17.59375 C 3.679688 -3.910156 15.523438 1.265625 28.40625 1.265625 C 37.027344 1.265625 45.195312 -0.460938 50.597656 -2.414062 C 51.289062 -2.644531 51.632812 -3.21875 51.632812 -3.910156 L 51.632812 -38.410156 C 51.632812 -53.242188 42.894531 -60.71875 28.75 -60.71875 C 19.894531 -60.71875 12.417969 -58.417969 7.015625 -54.738281 Z M 13.109375 -17.59375 C 13.109375 -23.917969 17.941406 -27.828125 28.40625 -27.828125 C 33.121094 -27.828125 38.523438 -27.140625 42.203125 -26.449219 L 42.203125 -9.199219 C 38.753906 -8.164062 33.578125 -7.128906 28.40625 -7.128906 C 19.550781 -7.128906 13.109375 -10.695312 13.109375 -17.59375 Z M 13.109375 -17.59375 "/></g></g></g></svg>